<mxfile host="drawio-plugin" modified="2021-05-02T17:18:12.719Z" agent="5.0 (X11; Linux x86_64) AppleWebKit/537.36 (KHTML, like Gecko) Chrome/87.0.4280.141 Safari/537.36" etag="OTLUYkBLlbdI6X4x7oJ1" version="13.7.9" type="embed"><diagram name="Page-1" id="efa7a0a1-bf9b-a30e-e6df-94a7791c09e9"><mxGraphModel dx="2048" dy="1129" grid="1" gridSize="10" guides="1" tooltips="1" connect="1" arrows="1" fold="1" page="1" pageScale="1" pageWidth="826" pageHeight="1169" background="#4D4D4D" math="0" shadow="0"><root><mxCell id="0"/><mxCell id="1" parent="0"/><mxCell id="XblsUo-H75bG_kqM80BN-130" style="edgeStyle=orthogonalEdgeStyle;rounded=0;orthogonalLoop=1;jettySize=auto;html=1;exitX=0.006;exitY=0.9;exitDx=0;exitDy=0;entryX=0.25;entryY=0;entryDx=0;entryDy=0;strokeColor=#FF0000;exitPerimeter=0;" parent="1" source="35" target="XblsUo-H75bG_kqM80BN-120" edge="1"><mxGeometry relative="1" as="geometry"/></mxCell><mxCell id="35" value="&lt;p style=&quot;margin: 0px ; margin-top: 4px ; text-align: center ; text-decoration: underline&quot;&gt;&lt;b&gt;User&lt;/b&gt;&lt;/p&gt;&lt;hr&gt;&lt;p style=&quot;margin: 0px ; margin-left: 8px&quot;&gt;IdUser&lt;/p&gt;&lt;p style=&quot;margin: 0px ; margin-left: 8px&quot;&gt;Name&lt;/p&gt;&lt;p style=&quot;margin: 0px ; margin-left: 8px&quot;&gt;LastName&lt;/p&gt;&lt;p style=&quot;margin: 0px ; margin-left: 8px&quot;&gt;UserName&lt;/p&gt;&lt;p style=&quot;margin: 0px ; margin-left: 8px&quot;&gt;Email&lt;/p&gt;&lt;p style=&quot;margin: 0px ; margin-left: 8px&quot;&gt;Password&lt;/p&gt;&lt;p style=&quot;margin: 0px ; margin-left: 8px&quot;&gt;CreatedAt&lt;/p&gt;&lt;p style=&quot;margin: 0px ; margin-left: 8px&quot;&gt;DeletedAt&lt;/p&gt;&lt;p style=&quot;margin: 0px ; margin-left: 8px&quot;&gt;UpdatedAt&lt;/p&gt;&lt;p style=&quot;margin: 0px ; margin-left: 8px&quot;&gt;UserImage&lt;/p&gt;" style="verticalAlign=top;align=left;overflow=fill;fontSize=12;fontFamily=Helvetica;html=1;shadow=1;fillColor=#60a917;strokeColor=#2D7600;fontColor=#ffffff;" parent="1" vertex="1"><mxGeometry x="1070" y="260" width="160" height="180" as="geometry"/></mxCell><mxCell id="XblsUo-H75bG_kqM80BN-128" style="edgeStyle=orthogonalEdgeStyle;rounded=0;orthogonalLoop=1;jettySize=auto;html=1;exitX=0;exitY=0.5;exitDx=0;exitDy=0;entryX=0.25;entryY=0;entryDx=0;entryDy=0;strokeColor=#FF0000;" parent="1" source="XblsUo-H75bG_kqM80BN-114" target="35" edge="1"><mxGeometry relative="1" as="geometry"><Array as="points"><mxPoint x="870" y="530"/><mxPoint x="850" y="530"/><mxPoint x="850" y="240"/><mxPoint x="1110" y="240"/></Array></mxGeometry></mxCell><mxCell id="XblsUo-H75bG_kqM80BN-114" value="&lt;p style=&quot;margin: 0px ; margin-top: 4px ; text-align: center ; text-decoration: underline&quot;&gt;&lt;b&gt;UserSetting&lt;/b&gt;&lt;/p&gt;&lt;hr&gt;&lt;p style=&quot;margin: 0px ; margin-left: 8px&quot;&gt;IdSetting&lt;/p&gt;&lt;p style=&quot;margin: 0px ; margin-left: 8px&quot;&gt;IdUser&lt;/p&gt;&lt;p style=&quot;margin: 0px ; margin-left: 8px&quot;&gt;Theme&lt;/p&gt;&lt;p style=&quot;margin: 0px ; margin-left: 8px&quot;&gt;IsComunication&lt;/p&gt;" style="verticalAlign=top;align=left;overflow=fill;fontSize=12;fontFamily=Helvetica;html=1;strokeColor=#2D7600;shadow=1;fillColor=#60a917;fontColor=#ffffff;" parent="1" vertex="1"><mxGeometry x="870" y="470" width="160" height="100" as="geometry"/></mxCell><mxCell id="XblsUo-H75bG_kqM80BN-120" value="&lt;p style=&quot;margin: 0px ; margin-top: 4px ; text-align: center ; text-decoration: underline&quot;&gt;&lt;b&gt;Image&lt;/b&gt;&lt;/p&gt;&lt;hr&gt;&lt;p style=&quot;margin: 0px ; margin-left: 8px&quot;&gt;IdImage&lt;/p&gt;&lt;p style=&quot;margin: 0px ; margin-left: 8px&quot;&gt;ImageUrl&lt;/p&gt;&lt;p style=&quot;margin: 0px ; margin-left: 8px&quot;&gt;ImageMiniUrl&lt;/p&gt;&lt;p style=&quot;margin: 0px ; margin-left: 8px&quot;&gt;CreatedAt&lt;/p&gt;" style="verticalAlign=top;align=left;overflow=fill;fontSize=12;fontFamily=Helvetica;html=1;strokeColor=#2D7600;shadow=1;fillColor=#60a917;fontColor=#ffffff;" parent="1" vertex="1"><mxGeometry x="1100" y="510" width="160" height="90" as="geometry"/></mxCell><mxCell id="XblsUo-H75bG_kqM80BN-131" style="edgeStyle=orthogonalEdgeStyle;rounded=0;orthogonalLoop=1;jettySize=auto;html=1;exitX=0;exitY=0.75;exitDx=0;exitDy=0;entryX=0.75;entryY=0;entryDx=0;entryDy=0;strokeColor=#FF0000;" parent="1" source="XblsUo-H75bG_kqM80BN-122" target="35" edge="1"><mxGeometry relative="1" as="geometry"/></mxCell><mxCell id="XblsUo-H75bG_kqM80BN-122" value="&lt;p style=&quot;margin: 0px ; margin-top: 4px ; text-align: center ; text-decoration: underline&quot;&gt;&lt;b&gt;ChatRoom&lt;/b&gt;&lt;/p&gt;&lt;hr&gt;&lt;p style=&quot;margin: 0px ; margin-left: 8px&quot;&gt;IdCat&lt;/p&gt;&lt;p style=&quot;margin: 0px ; margin-left: 8px&quot;&gt;Name&lt;/p&gt;&lt;p style=&quot;margin: 0px ; margin-left: 8px&quot;&gt;UserId&lt;/p&gt;&lt;p style=&quot;margin: 0px ; margin-left: 8px&quot;&gt;CreatedAt&lt;/p&gt;" style="verticalAlign=top;align=left;overflow=fill;fontSize=12;fontFamily=Helvetica;html=1;strokeColor=#2D7600;shadow=1;fillColor=#60a917;fontColor=#ffffff;" parent="1" vertex="1"><mxGeometry x="1320" y="380" width="160" height="90" as="geometry"/></mxCell><mxCell id="XblsUo-H75bG_kqM80BN-132" style="edgeStyle=orthogonalEdgeStyle;rounded=0;orthogonalLoop=1;jettySize=auto;html=1;exitX=0;exitY=0.5;exitDx=0;exitDy=0;entryX=0.25;entryY=0;entryDx=0;entryDy=0;strokeColor=#FF0000;" parent="1" source="XblsUo-H75bG_kqM80BN-125" target="XblsUo-H75bG_kqM80BN-122" edge="1"><mxGeometry relative="1" as="geometry"/></mxCell><mxCell id="XblsUo-H75bG_kqM80BN-133" style="edgeStyle=orthogonalEdgeStyle;rounded=0;orthogonalLoop=1;jettySize=auto;html=1;exitX=0;exitY=0.75;exitDx=0;exitDy=0;entryX=0.5;entryY=0;entryDx=0;entryDy=0;strokeColor=#0000FF;" parent="1" source="XblsUo-H75bG_kqM80BN-125" target="35" edge="1"><mxGeometry relative="1" as="geometry"><Array as="points"><mxPoint x="1290" y="293"/><mxPoint x="1290" y="220"/><mxPoint x="1150" y="220"/></Array></mxGeometry></mxCell><mxCell id="XblsUo-H75bG_kqM80BN-125" value="&lt;p style=&quot;margin: 0px ; margin-top: 4px ; text-align: center ; text-decoration: underline&quot;&gt;&lt;b&gt;UserChatMap&lt;/b&gt;&lt;/p&gt;&lt;hr&gt;&lt;p style=&quot;margin: 0px ; margin-left: 8px&quot;&gt;ChatId&lt;/p&gt;&lt;p style=&quot;margin: 0px ; margin-left: 8px&quot;&gt;UserId&lt;/p&gt;" style="verticalAlign=top;align=left;overflow=fill;fontSize=12;fontFamily=Helvetica;html=1;strokeColor=#2D7600;shadow=1;fillColor=#60a917;fontColor=#ffffff;" parent="1" vertex="1"><mxGeometry x="1320" y="240" width="160" height="70" as="geometry"/></mxCell><mxCell id="XblsUo-H75bG_kqM80BN-137" style="edgeStyle=orthogonalEdgeStyle;rounded=0;orthogonalLoop=1;jettySize=auto;html=1;exitX=0;exitY=0.5;exitDx=0;exitDy=0;entryX=0.75;entryY=0;entryDx=0;entryDy=0;strokeColor=#0000FF;" parent="1" source="XblsUo-H75bG_kqM80BN-134" target="XblsUo-H75bG_kqM80BN-122" edge="1"><mxGeometry relative="1" as="geometry"><Array as="points"><mxPoint x="1360" y="680"/><mxPoint x="1340" y="680"/><mxPoint x="1340" y="550"/><mxPoint x="1500" y="550"/><mxPoint x="1500" y="360"/><mxPoint x="1440" y="360"/></Array></mxGeometry></mxCell><mxCell id="XblsUo-H75bG_kqM80BN-138" style="edgeStyle=orthogonalEdgeStyle;rounded=0;orthogonalLoop=1;jettySize=auto;html=1;exitX=0;exitY=0.5;exitDx=0;exitDy=0;entryX=0.606;entryY=-0.006;entryDx=0;entryDy=0;entryPerimeter=0;strokeColor=#33FF33;" parent="1" source="XblsUo-H75bG_kqM80BN-134" target="35" edge="1"><mxGeometry relative="1" as="geometry"><Array as="points"><mxPoint x="1360" y="700"/><mxPoint x="1280" y="700"/><mxPoint x="1280" y="230"/><mxPoint x="1167" y="230"/></Array></mxGeometry></mxCell><mxCell id="XblsUo-H75bG_kqM80BN-134" value="&lt;p style=&quot;margin: 0px ; margin-top: 4px ; text-align: center ; text-decoration: underline&quot;&gt;&lt;b&gt;Message&lt;/b&gt;&lt;/p&gt;&lt;hr&gt;&lt;p style=&quot;margin: 0px ; margin-left: 8px&quot;&gt;IdMessage&lt;/p&gt;&lt;p style=&quot;margin: 0px ; margin-left: 8px&quot;&gt;ChatId&lt;/p&gt;&lt;p style=&quot;margin: 0px ; margin-left: 8px&quot;&gt;UserId&lt;/p&gt;&lt;p style=&quot;margin: 0px ; margin-left: 8px&quot;&gt;Content&lt;/p&gt;&lt;p style=&quot;margin: 0px ; margin-left: 8px&quot;&gt;CreatedAt&lt;/p&gt;&lt;p style=&quot;margin: 0px ; margin-left: 8px&quot;&gt;UpdatedAt&lt;/p&gt;" style="verticalAlign=top;align=left;overflow=fill;fontSize=12;fontFamily=Helvetica;html=1;strokeColor=#2D7600;shadow=1;fillColor=#60a917;fontColor=#ffffff;" parent="1" vertex="1"><mxGeometry x="1360" y="630" width="160" height="120" as="geometry"/></mxCell><mxCell id="XblsUo-H75bG_kqM80BN-140" style="edgeStyle=orthogonalEdgeStyle;rounded=0;orthogonalLoop=1;jettySize=auto;html=1;exitX=0;exitY=0.25;exitDx=0;exitDy=0;entryX=0.356;entryY=0;entryDx=0;entryDy=0;entryPerimeter=0;strokeColor=#FFFF00;" parent="1" source="XblsUo-H75bG_kqM80BN-139" target="35" edge="1"><mxGeometry relative="1" as="geometry"><Array as="points"><mxPoint x="1560" y="400"/><mxPoint x="1540" y="400"/><mxPoint x="1540" y="160"/><mxPoint x="1127" y="160"/></Array></mxGeometry></mxCell><mxCell id="XblsUo-H75bG_kqM80BN-141" style="edgeStyle=orthogonalEdgeStyle;rounded=0;orthogonalLoop=1;jettySize=auto;html=1;exitX=0;exitY=0.25;exitDx=0;exitDy=0;entryX=0.75;entryY=0;entryDx=0;entryDy=0;strokeColor=#0000FF;" parent="1" source="XblsUo-H75bG_kqM80BN-139" target="XblsUo-H75bG_kqM80BN-134" edge="1"><mxGeometry relative="1" as="geometry"><Array as="points"><mxPoint x="1530" y="380"/><mxPoint x="1530" y="600"/><mxPoint x="1480" y="600"/></Array></mxGeometry></mxCell><mxCell id="XblsUo-H75bG_kqM80BN-139" value="&lt;p style=&quot;margin: 0px ; margin-top: 4px ; text-align: center ; text-decoration: underline&quot;&gt;&lt;b&gt;MessageStatus&lt;/b&gt;&lt;/p&gt;&lt;hr&gt;&lt;p style=&quot;margin: 0px ; margin-left: 8px&quot;&gt;IdMessage&lt;/p&gt;&lt;p style=&quot;margin: 0px ; margin-left: 8px&quot;&gt;UserId&lt;/p&gt;&lt;p style=&quot;margin: 0px ; margin-left: 8px&quot;&gt;isRead&lt;/p&gt;" style="verticalAlign=top;align=left;overflow=fill;fontSize=12;fontFamily=Helvetica;html=1;strokeColor=#2D7600;shadow=1;fillColor=#60a917;fontColor=#ffffff;" parent="1" vertex="1"><mxGeometry x="1560" y="350" width="160" height="80" as="geometry"/></mxCell><mxCell id="XblsUo-H75bG_kqM80BN-144" style="edgeStyle=orthogonalEdgeStyle;rounded=0;orthogonalLoop=1;jettySize=auto;html=1;exitX=0.5;exitY=1;exitDx=0;exitDy=0;strokeColor=#0000FF;" parent="1" source="XblsUo-H75bG_kqM80BN-139" target="XblsUo-H75bG_kqM80BN-139" edge="1"><mxGeometry relative="1" as="geometry"/></mxCell></root></mxGraphModel></diagram></mxfile>